<svg width="400.205029296875px" height="122.021240234375px" xmlns="http://www.w3.org/2000/svg" viewBox="49.897485351562494 13.9893798828125 400.205029296875 122.021240234375" style="background: rgb(52, 152, 219);" preserveAspectRatio="xMidYMid"><defs><filter id="editing-hover" x="-100%" y="-100%" width="300%" height="300%"><feFlood flood-color="#052b4a" result="flood"></feFlood><feComposite operator="in" in2="SourceAlpha" in="flood" result="shadow"></feComposite><feOffset dx="-4" dy="-4" in="SourceGraphic" result="offset-1"></feOffset><feOffset dx="4" dy="4" in="shadow" result="offset-2"></feOffset><feMerge><feMergeNode in="offset-2"></feMergeNode><feMergeNode in="offset-1"></feMergeNode></feMerge></filter></defs><g filter="url(#editing-hover)"><g transform="translate(109.96499264240265, 92.5921859741211)"><path d="M32.51-26.62L32.51-26.62L32.51-26.62Q32.51-23.94 30.27-22.27L30.27-22.27L30.27-22.27Q28.03-20.61 24.38-20.61L24.38-20.61L24.38-20.61Q22.85-20.61 21.95-21.06L21.95-21.06L21.95-21.06Q22.66-22.72 22.88-24.80L22.88-24.80L22.88-24.80Q23.10-26.88 23.10-27.46L23.10-27.46L23.10-27.46Q23.10-30.14 21.25-30.14L21.25-30.14L21.25-30.14Q19.97-30.14 18.53-28.54L18.53-28.54L18.53-28.54Q17.09-26.94 15.87-24.45L15.87-24.45L15.87-24.45Q13.18-18.69 13.18-12.86L13.18-12.86L13.18-12.86Q13.18-9.66 14.40-8.22L14.40-8.22L14.40-8.22Q15.62-6.78 18.30-6.78L18.30-6.78L18.30-6.78Q22.02-6.78 24.96-9.86L24.96-9.86L24.96-9.86Q25.79-10.82 26.24-11.90L26.24-11.90L26.24-11.90Q28.67-10.62 28.67-7.10L28.67-7.10L28.67-7.10Q28.67-3.52 24.70-1.15L24.70-1.15L24.70-1.15Q20.61 1.28 14.08 1.28L14.08 1.28L14.08 1.28Q1.09 1.28 1.09-12.48L1.09-12.48L1.09-12.48Q1.09-22.53 6.78-28.29L6.78-28.29L6.78-28.29Q12.29-33.92 22.40-33.92L22.40-33.92L22.40-33.92Q32.51-33.92 32.51-26.62ZM48.19 1.28L48.19 1.28L48.19 1.28Q34.11 1.28 34.11-11.97L34.11-11.97L34.11-11.97Q34.11-21.38 39.30-27.46L39.30-27.46L39.30-27.46Q44.80-33.92 54.34-33.92L54.34-33.92L54.34-33.92Q61.25-33.92 64.77-30.72L64.77-30.72L64.77-30.72Q68.29-27.52 68.29-20.80L68.29-20.80L68.29-20.80Q68.29-10.56 62.78-4.61L62.78-4.61L62.78-4.61Q57.41 1.28 48.19 1.28ZM49.86-26.56L49.86-26.56L49.86-26.56Q49.09-24.83 48.48-22.24L48.48-22.24L48.48-22.24Q47.87-19.65 47.10-15.55L47.10-15.55L47.10-15.55Q46.34-11.46 46.34-6.40L46.34-6.40L46.34-6.40Q46.34-4.74 46.88-3.65L46.88-3.65L46.88-3.65Q47.42-2.56 48.90-2.56L48.90-2.56L48.90-2.56Q50.37-2.56 51.30-3.26L51.30-3.26L51.30-3.26Q52.22-3.97 52.93-5.63L52.93-5.63L52.93-5.63Q54.21-8.58 55.23-14.05L55.23-14.05L55.23-14.05Q56.26-19.52 56.35-21.89L56.35-21.89L56.35-21.89Q56.45-24.26 56.45-26.02L56.45-26.02L56.45-26.02Q56.45-27.78 55.94-28.93L55.94-28.93L55.94-28.93Q55.42-30.08 53.98-30.08L53.98-30.08L53.98-30.08Q52.54-30.08 51.58-29.18L51.58-29.18L51.58-29.18Q50.62-28.29 49.86-26.56ZM99.14 1.28L99.14 1.28L99.14 1.28Q91.39 1.28 91.39-4.74L91.39-4.74L91.39-4.74Q91.46-6.40 91.97-9.22L91.97-9.22L93.12-15.10L93.12-15.10Q94.85-23.42 94.85-25.28L94.85-25.28L94.85-25.28Q94.85-28.99 92.67-28.99L92.67-28.99L92.67-28.99Q89.02-28.99 87.10-19.46L87.10-19.46L83.33 0L70.46 1.28L77.12-32.70L87.62-33.92L86.59-27.65L86.59-27.65Q89.60-33.92 98.82-33.92L98.82-33.92L98.82-33.92Q103.30-33.92 105.18-32.03L105.18-32.03L105.18-32.03Q107.07-30.14 107.07-25.92L107.07-25.92L107.07-25.92Q107.07-21.95 105.02-12.67L105.02-12.67L105.02-12.67Q104.06-8.51 104.06-6.94L104.06-6.94L104.06-6.94Q104.06-5.38 104.93-4.48L104.93-4.48L104.93-4.48Q105.79-3.58 107.07-3.46L107.07-3.46L107.07-3.46Q106.43-1.28 104.22 0L104.22 0L104.22 0Q102.02 1.28 99.14 1.28ZM135.42-31.55L135.42-31.55L135.42-31.55Q137.54-33.92 141.18-33.92L141.18-33.92L141.18-33.92Q143.42-33.92 145.15-32.70L145.15-32.70L145.15-32.70Q146.88-31.49 146.88-29.22L146.88-29.22L146.88-29.22Q146.88-26.94 146.18-24.51L146.18-24.51L146.18-24.51Q145.47-22.08 144.38-19.58L144.38-19.58L144.38-19.58Q142.21-14.72 139.20-10.69L139.20-10.69L139.20-10.69Q134.98-4.86 130.91-1.79L130.91-1.79L130.91-1.79Q126.85 1.28 122.43 1.28L122.43 1.28L122.43 1.28Q118.85 1.28 116.67 0.45L116.67 0.45L116.67 0.45Q116.29-12.99 115.81-17.79L115.81-17.79L115.81-17.79Q115.33-22.59 114.94-25.22L114.94-25.22L114.94-25.22Q114.30-30.34 112.38-31.55L112.38-31.55L112.38-31.55Q113.86-32.83 115.30-33.38L115.30-33.38L115.30-33.38Q116.74-33.92 119.71-33.92L119.71-33.92L119.71-33.92Q122.69-33.92 124.80-31.58L124.80-31.58L124.80-31.58Q126.91-29.25 127.33-25.12L127.33-25.12L127.33-25.12Q127.74-20.99 127.74-16L127.74-16L127.74-16Q127.74-11.01 127.36-4.99L127.36-4.99L127.36-4.99Q129.34-6.40 131.46-10.69L131.46-10.69L131.46-10.69Q134.34-16.64 135.36-23.81L135.36-23.81L135.36-23.81Q135.68-25.98 135.68-28.29L135.68-28.29L135.68-28.29Q135.68-30.59 135.42-31.55ZM174.53-10.82L174.53-10.82L174.53-10.82Q176.13-9.73 176.13-7.33L176.13-7.33L176.13-7.33Q176.13-4.93 174.91-3.39L174.91-3.39L174.91-3.39Q173.70-1.86 171.71-0.83L171.71-0.83L171.71-0.83Q167.62 1.28 163.20 1.28L163.20 1.28L163.20 1.28Q158.78 1.28 156.19 0.32L156.19 0.32L156.19 0.32Q153.60-0.64 151.87-2.43L151.87-2.43L151.87-2.43Q148.48-5.82 148.48-12.03L148.48-12.03L148.48-12.03Q148.48-21.70 153.73-27.58L153.73-27.58L153.73-27.58Q159.36-33.92 169.15-33.92L169.15-33.92L169.15-33.92Q175.23-33.92 178.24-31.36L178.24-31.36L178.24-31.36Q180.48-29.44 180.48-26.30L180.48-26.30L180.48-26.30Q180.48-15.04 161.02-15.04L161.02-15.04L161.02-15.04Q160.77-13.38 160.77-11.97L160.77-11.97L160.77-11.97Q160.77-9.02 162.08-7.90L162.08-7.90L162.08-7.90Q163.39-6.78 165.82-6.78L165.82-6.78L165.82-6.78Q168.26-6.78 170.85-7.90L170.85-7.90L170.85-7.90Q173.44-9.02 174.53-10.82ZM161.47-17.79L161.47-17.79L161.47-17.79Q166.02-17.79 168.64-20.61L168.64-20.61L168.64-20.61Q171.26-23.30 171.26-27.58L171.26-27.58L171.26-27.58Q171.26-29.06 170.72-29.86L170.72-29.86L170.72-29.86Q170.18-30.66 169.09-30.66L169.09-30.66L169.09-30.66Q168-30.66 167.07-30.24L167.07-30.24L167.07-30.24Q166.14-29.82 165.18-28.42L165.18-28.42L165.18-28.42Q162.82-25.22 161.47-17.79ZM202.69-17.98L202.69-17.98L202.69-17.98Q204.99-22.08 204.99-26.24L204.99-26.24L204.99-26.24Q204.99-28.99 203.01-28.99L203.01-28.99L203.01-28.99Q201.47-28.99 199.87-26.37L199.87-26.37L199.87-26.37Q198.21-23.74 197.70-20.35L197.70-20.35L194.37 0L181.12 1.28L187.65-32.64L198.21-33.92L197.06-27.46L197.06-27.46Q200.19-33.92 207.23-33.92L207.23-33.92L207.23-33.92Q210.94-33.92 212.96-32L212.96-32L212.96-32Q214.98-30.08 214.98-26.14L214.98-26.14L214.98-26.14Q214.98-22.21 212.38-19.71L212.38-19.71L212.38-19.71Q209.79-17.22 205.38-17.22L205.38-17.22L205.38-17.22Q203.46-17.22 202.69-17.98ZM235.14-22.46L235.14-22.46L235.14-22.46Q236.03-24.83 236.03-26.88L236.03-26.88L236.03-26.88Q236.03-30.66 232.96-30.66L232.96-30.66L232.96-30.66Q231.36-30.66 230.05-29.22L230.05-29.22L230.05-29.22Q228.74-27.78 228.74-25.98L228.74-25.98L228.74-25.98Q228.74-24.70 229.76-23.68L229.76-23.68L229.76-23.68Q231.23-22.27 235.01-19.97L235.01-19.97L235.01-19.97Q238.78-17.66 240.22-15.78L240.22-15.78L240.22-15.78Q241.66-13.89 241.66-11.30L241.66-11.30L241.66-11.30Q241.66-8.70 240.42-6.34L240.42-6.34L240.42-6.34Q239.17-3.97 236.93-2.30L236.93-2.30L236.93-2.30Q232.13 1.28 224.45 1.28L224.45 1.28L224.45 1.28Q220.29 1.28 217.09-0.90L217.09-0.90L217.09-0.90Q213.89-3.01 213.89-5.50L213.89-5.50L213.89-5.50Q213.89-8 215.71-9.47L215.71-9.47L215.71-9.47Q217.54-10.94 220.22-10.94L220.22-10.94L220.22-10.94Q222.91-10.94 224.58-9.92L224.58-9.92L224.58-9.92Q223.74-7.81 223.74-6.40L223.74-6.40L223.74-6.40Q223.74-2.18 227.33-2.18L227.33-2.18L227.33-2.18Q228.86-2.18 229.89-3.14L229.89-3.14L229.89-3.14Q230.91-4.10 230.91-5.76L230.91-5.76L230.91-5.76Q230.91-9.02 225.41-12.48L225.41-12.48L225.41-12.48Q220.93-15.42 219.90-16.58L219.90-16.58L219.90-16.58Q218.18-18.62 218.18-21.18L218.18-21.18L218.18-21.18Q218.18-23.74 219.39-26.18L219.39-26.18L219.39-26.18Q220.61-28.61 222.85-30.34L222.85-30.34L222.85-30.34Q227.52-33.92 235.65-33.92L235.65-33.92L235.65-33.92Q239.81-33.92 242.27-32.26L242.27-32.26L242.27-32.26Q244.74-30.59 244.74-27.78L244.74-27.78L244.74-27.78Q244.74-24.96 243.04-23.36L243.04-23.36L243.04-23.36Q241.34-21.76 238.27-21.76L238.27-21.76L238.27-21.76Q236.16-21.76 235.14-22.46ZM273.02-10.82L273.02-10.82L273.02-10.82Q274.62-9.73 274.62-7.33L274.62-7.33L274.62-7.33Q274.62-4.93 273.41-3.39L273.41-3.39L273.41-3.39Q272.19-1.86 270.21-0.83L270.21-0.83L270.21-0.83Q266.11 1.28 261.70 1.28L261.70 1.28L261.70 1.28Q257.28 1.28 254.69 0.32L254.69 0.32L254.69 0.32Q252.10-0.64 250.37-2.43L250.37-2.43L250.37-2.43Q246.98-5.82 246.98-12.03L246.98-12.03L246.98-12.03Q246.98-21.70 252.22-27.58L252.22-27.58L252.22-27.58Q257.86-33.92 267.65-33.92L267.65-33.92L267.65-33.92Q273.73-33.92 276.74-31.36L276.74-31.36L276.74-31.36Q278.98-29.44 278.98-26.30L278.98-26.30L278.98-26.30Q278.98-15.04 259.52-15.04L259.52-15.04L259.52-15.04Q259.26-13.38 259.26-11.97L259.26-11.97L259.26-11.97Q259.26-9.02 260.58-7.90L260.58-7.90L260.58-7.90Q261.89-6.78 264.32-6.78L264.32-6.78L264.32-6.78Q266.75-6.78 269.34-7.90L269.34-7.90L269.34-7.90Q271.94-9.02 273.02-10.82ZM259.97-17.79L259.97-17.79L259.97-17.79Q264.51-17.79 267.14-20.61L267.14-20.61L267.14-20.61Q269.76-23.30 269.76-27.58L269.76-27.58L269.76-27.58Q269.76-29.06 269.22-29.86L269.22-29.86L269.22-29.86Q268.67-30.66 267.58-30.66L267.58-30.66L267.58-30.66Q266.50-30.66 265.57-30.24L265.57-30.24L265.57-30.24Q264.64-29.82 263.68-28.42L263.68-28.42L263.68-28.42Q261.31-25.22 259.97-17.79Z" fill="#e8e2dc"></path></g></g><style>text {
  font-size: 64px;
  font-family: Arial Black;
  dominant-baseline: central;
  text-anchor: middle;
}</style></svg>